<?xml version="1.0" encoding="utf-8"?>
<!-- Generator: Adobe Illustrator 24.0.3, SVG Export Plug-In . SVG Version: 6.00 Build 0)  -->
<svg version="1.1" id="f2f1e99e-1651-46a6-b45f-af903ca31f8b"
	 xmlns="http://www.w3.org/2000/svg" xmlns:xlink="http://www.w3.org/1999/xlink" x="0px" y="0px" viewBox="0 0 887 542.5"
	 style="enable-background:new 0 0 887 542.5;" xml:space="preserve">
<style type="text/css">
	.st0{fill:#E6E6E6;}
	.st1{fill:#2F2E41;}
	.st2{fill:#FBBEBE;}
	.st3{fill:#575A89;}
	.st4{fill:#FFFFFF;}
	.st5{fill:#4B6EF5;}
</style>
<title>online_calendar</title>
<ellipse class="st0" cx="122" cy="527.9" rx="122" ry="14.6"/>
<path class="st1" d="M153.1,141.1c-0.1,0.3-0.1,0.6-0.2,0.9c-3.3,13.9-2.5,27.9,1.5,42.1H86.9l10.7-48.8c0-7.2,3.1-14.1,8.6-18.8
	c0.5-0.4,0.9-0.8,1.4-1.1c4.3-3.3,9.6-5,15-5h5.8c3.5,0,6.9,0.7,10.2,2.1c0.5,0.2,1.1,0.5,1.6,0.7c11.2,3.9,17.9,15.4,16.6,27.3
	c-1.6,14.2,0.7,28,6.4,41.6l-3.5,0.4C153.9,169,151.5,155.2,153.1,141.1z"/>
<path class="st2" d="M112.2,148.2c0,0,5.3,23.1-5.3,24.9s27.5,7.1,27.5,7.1s-2.7-18.7,3.6-24.9L112.2,148.2z"/>
<path class="st2" d="M67.8,308c0,0-2.2,27.2,7.1,27.5s4.1-26.7,4.1-26.7L67.8,308z"/>
<path class="st2" d="M191.3,321.4c0,0,8.9,25.8,0,28.4s-10.7-24.9-10.7-24.9L191.3,321.4z"/>
<polygon class="st3" points="144.2,193.5 156.7,191.6 162,195.3 166.4,208.6 177.1,262.8 185.1,298.3 197.5,323.2 177.1,332 
	157.5,268.1 "/>
<path class="st1" d="M94.9,259.7c0,0-5.3,35.5-1.8,42.6c0,0-6.6,41.2-11.5,68.4l-7.1,39.1l-16,59.5l25.8,7.1l52.4-145.7l15.1,81.7
	l2.7,58.6l27.5-0.9L178.4,368c0,0,16-67.5-11.5-92.4s-32-24.9-32-24.9L94.9,259.7z"/>
<path class="st1" d="M173.5,467.5l7.1,24l4.4,21.3c0,0,16,24,0,21.3s-17.8-11.5-17.8-11.5v-5.3l-4.4-2.7v-8.9c0,0-6.2-4.4,0-11.5
	l-2.7-24.9L173.5,467.5z"/>
<path class="st1" d="M65.2,467.5l-7.1,24l-4.4,21.3c0,0-16,24,0,21.3s17.8-11.5,17.8-11.5v-5.3l4.4-2.7v-8.9c0,0,6.2-4.4,0-11.5
	l2.7-24.9L65.2,467.5z"/>
<ellipse transform="matrix(8.248050e-02 -0.9966 0.9966 8.248050e-02 -19.4851 255.6634)" class="st2" cx="129.1" cy="138.4" rx="22.2" ry="22.2"/>
<path class="st3" d="M106.9,168.6c0,0,23.1,9.8,29.3,8s8,6.2,8,6.2l17.8,12.4l-5.3,30.2c0,0,4.4,16-0.9,26.6c0,0,14.2,4.4,8.9,11.5
	c0,0,9.8,5.3,4.4,16c0,0-26.6-7.1-29.3-20.4l-27.5,3.6l-19.5,15.1c0,0-9.8-0.9-6.2-15.1c2.1-8.8,1.8-18-0.9-26.6l-9.8-62.2
	L106.9,168.6z"/>
<path class="st3" d="M78.8,173.1l-3.5,0.9c-1.2,0.3-2.3,1-3.2,2l-1.1,1.3c-1.1,1.3-1.8,3-1.9,4.7l-0.8,11.3l-1.2,55.1L68,285
	l-5.8,27.2l22,3.5l3-66.8l-5.5-73.7c-0.1-1.3-1.2-2.2-2.5-2.1C79,173.1,78.9,173.1,78.8,173.1z"/>
<path class="st1" d="M133.5,181.6c-3.6-8.8-9.1-18.2-12.6-26.5c-2.5-9.8-3.1-18.2,2.5-22.4c0-9.4,0.3-15.6-7.2-20.2
	c-1.8,0.8-3.5,1.8-5.1,3l0,0c-0.3,0.2-0.6,0.4-0.9,0.7c-0.1,0.1-0.2,0.2-0.4,0.3c-0.1,0.1-0.1,0.1-0.2,0.2l0,0
	c-5.4,4.7-8.6,11.6-8.6,18.8v47h27.5c-0.9-4-2.1-8.1-3.4-12.2c2,4,3.9,8,5.6,11.9L133.5,181.6z"/>
<path class="st1" d="M154.4,132.6c-12,3.4-25.6,2.8-40,0v-17.8h22.2C146.5,114.9,154.4,122.8,154.4,132.6L154.4,132.6z"/>
<rect x="336" y="40.4" class="st0" width="551" height="343.1"/>
<rect x="372.9" y="106.5" class="st4" width="100.9" height="65.6"/>
<rect x="498.3" y="106.5" class="st4" width="100.9" height="65.6"/>
<rect x="623.7" y="106.5" class="st4" width="100.9" height="65.6"/>
<rect x="749.1" y="106.5" class="st4" width="100.9" height="65.6"/>
<rect x="372.9" y="199.3" class="st4" width="100.9" height="65.6"/>
<rect x="498.3" y="199.3" class="st4" width="100.9" height="65.6"/>
<rect x="623.7" y="199.3" class="st4" width="100.9" height="65.6"/>
<rect x="749.1" y="199.3" class="st4" width="100.9" height="65.6"/>
<rect x="372.9" y="292.2" class="st4" width="100.9" height="65.6"/>
<rect x="498.3" y="292.2" class="st4" width="100.9" height="65.6"/>
<rect x="623.7" y="292.2" class="st4" width="100.9" height="65.6"/>
<rect x="749.1" y="292.2" class="st4" width="100.9" height="65.6"/>
<circle class="st4" cx="480.3" cy="65.6" r="15.1"/>
<circle class="st4" cx="730.6" cy="65.6" r="15.1"/>
<rect x="474.3" class="st0" width="12.1" height="69.6"/>
<rect x="724.5" class="st0" width="12.1" height="69.6"/>
<path class="st5" d="M822.4,139.3c0,12.6-10.2,22.7-22.8,22.7c-12.6,0-22.7-10.2-22.7-22.8c0-12.6,10.2-22.7,22.8-22.7
	c7.8,0,15,4,19.2,10.6C821.2,130.7,822.4,134.9,822.4,139.3z"/>
<path class="st4" d="M818.9,127.1l-22.5,22.5c-1.4-2.2-9.3-12.3-9.3-12.3c1-1,2.1-2,3.2-2.8l6.5,8.7l19.4-19.4
	C817.2,124.7,818.1,125.9,818.9,127.1z"/>
<path class="st5" d="M571.6,232.1c0,12.6-10.2,22.7-22.8,22.7c-12.6,0-22.7-10.2-22.7-22.8c0-12.6,10.2-22.7,22.8-22.7
	c7.8,0,15,4,19.2,10.6C570.4,223.6,571.6,227.8,571.6,232.1z"/>
<path class="st4" d="M568.1,219.9l-22.5,22.5c-1.4-2.2-9.3-12.3-9.3-12.3c1-1,2.1-2,3.2-2.8l6.5,8.7l19.4-19.4
	C566.4,217.6,567.3,218.7,568.1,219.9z"/>
<path class="st5" d="M446.2,232.1c0,12.6-10.2,22.7-22.8,22.7c-12.6,0-22.7-10.2-22.7-22.8c0-12.6,10.2-22.7,22.8-22.7
	c7.8,0,15,4,19.2,10.6C445,223.6,446.2,227.8,446.2,232.1z"/>
<path class="st4" d="M442.7,219.9l-22.5,22.5c-1.4-2.2-9.3-12.3-9.3-12.3c1-1,2.1-2,3.2-2.8l6.5,8.7l19.4-19.4
	C441.1,217.6,441.9,218.7,442.7,219.9z"/>
</svg>
